<?xml version="1.0" encoding="UTF-8" standalone="no"?>
<!-- Created with Inkscape (http://www.inkscape.org/) -->

<svg
   xmlns:dc="http://purl.org/dc/elements/1.1/"
   xmlns:cc="http://creativecommons.org/ns#"
   xmlns:rdf="http://www.w3.org/1999/02/22-rdf-syntax-ns#"
   xmlns:svg="http://www.w3.org/2000/svg"
   xmlns="http://www.w3.org/2000/svg"
   xmlns:xlink="http://www.w3.org/1999/xlink"
   xmlns:sodipodi="http://sodipodi.sourceforge.net/DTD/sodipodi-0.dtd"
   xmlns:inkscape="http://www.inkscape.org/namespaces/inkscape"
   width="1024"
   height="256"
   id="svg2"
   sodipodi:version="0.32"
   inkscape:version="0.47pre4 r22446"
   version="1.0"
   sodipodi:docname="lambdium-banner.svg"
   inkscape:output_extension="org.inkscape.output.svg.inkscape"
   style="display:inline">
  <defs
     id="defs4">
    <inkscape:perspective
       sodipodi:type="inkscape:persp3d"
       inkscape:vp_x="0 : 128 : 1"
       inkscape:vp_y="0 : 1000 : 0"
       inkscape:vp_z="1024 : 128 : 1"
       inkscape:persp3d-origin="512 : 85.333333 : 1"
       id="perspective20" />
    <linearGradient
       id="linearGradient3139">
      <stop
         id="stop5085"
         offset="0"
         style="stop-color:#d2dfe7;stop-opacity:1;" />
      <stop
         style="stop-color:#5b8ba6;stop-opacity:1;"
         offset="1"
         id="stop3143" />
    </linearGradient>
    <radialGradient
       inkscape:collect="always"
       xlink:href="#linearGradient3139"
       id="radialGradient3929"
       gradientUnits="userSpaceOnUse"
       gradientTransform="matrix(2.4184429,-0.01517372,0.01501853,2.393709,-211.55386,-97.02057)"
       cx="150.35114"
       cy="78.555992"
       fx="150.35114"
       fy="78.555992"
       r="40.000004" />
    <radialGradient
       inkscape:collect="always"
       xlink:href="#linearGradient3139"
       id="radialGradient3653"
       gradientUnits="userSpaceOnUse"
       gradientTransform="matrix(2.4184429,-0.01517372,0.01501853,2.393709,-211.55386,-97.02057)"
       cx="150.35114"
       cy="78.555992"
       fx="150.35114"
       fy="78.555992"
       r="40.000004" />
    <linearGradient
       inkscape:collect="always"
       xlink:href="#linearGradient3139"
       id="linearGradient5100"
       x1="576"
       y1="16"
       x2="576"
       y2="208"
       gradientUnits="userSpaceOnUse" />
    <filter
       inkscape:collect="always"
       id="filter3598">
      <feGaussianBlur
         inkscape:collect="always"
         stdDeviation="3.0985938"
         id="feGaussianBlur3600" />
    </filter>
  </defs>
  <sodipodi:namedview
     id="base"
     pagecolor="#ffffff"
     bordercolor="#666666"
     borderopacity="1.0"
     gridtolerance="10"
     guidetolerance="10"
     objecttolerance="10"
     inkscape:pageopacity="0.0"
     inkscape:pageshadow="2"
     inkscape:zoom="1"
     inkscape:cx="544.69062"
     inkscape:cy="100.81744"
     inkscape:document-units="px"
     inkscape:current-layer="layer1"
     width="960px"
     height="240px"
     inkscape:window-width="1440"
     inkscape:window-height="878"
     inkscape:window-x="-4"
     inkscape:window-y="-3"
     showgrid="true"
     inkscape:object-paths="false"
     inkscape:grid-points="true"
     inkscape:grid-bbox="true"
     showguides="true"
     inkscape:guide-bbox="true"
     inkscape:window-maximized="1">
    <inkscape:grid
       id="GridFromPre046Settings"
       type="xygrid"
       originx="0px"
       originy="0px"
       spacingx="4px"
       spacingy="4px"
       color="#0000ff"
       empcolor="#0000ff"
       opacity="0.2"
       empopacity="0.4"
       empspacing="8"
       visible="true"
       enabled="true"
       snapvisiblegridlinesonly="true" />
  </sodipodi:namedview>
  <metadata
     id="metadata7">
    <rdf:RDF>
      <cc:Work
         rdf:about="">
        <dc:format>image/svg+xml</dc:format>
        <dc:type
           rdf:resource="http://purl.org/dc/dcmitype/StillImage" />
      </cc:Work>
    </rdf:RDF>
  </metadata>
  <g
     inkscape:groupmode="layer"
     id="layer1"
     inkscape:label="Shadow"
     style="display:inline">
    <path
       style="opacity:0.80000000000000004;fill:#000000;fill-opacity:1;fill-rule:evenodd;stroke:#000000;display:inline;filter:url(#filter3598);stroke-opacity:1"
       d="M 132,12 C 60.000004,12 12,60.000002 12,132 12,204.00001 60.000004,252 132,252 204,252 252,204.00001 252,132 252,60.000002 204,12 132,12 z m 107.375,24 c 22.80889,23.872758 36.0625,57.093777 36.0625,96 0,38.90622 -13.25361,72.12724 -36.0625,96 l 700.0625,0 c 48,0 72,-56 72,-96 0,-40.000003 -24,-96 -72,-96 L 239.375,36 z m -127.5,4.1875 c 6.27928,0.107418 12.48985,3.486016 15.71875,11.28125 L 187.3125,195.5625 c 5.74024,13.85818 -5.1334,24.45969 -16.3125,25.03125 -6.70747,0.3429 -13.52459,-2.93506 -16.96875,-11.25 0,0 -11.72974,-28.47364 -22.03125,-53.34375 -10.52663,25.41351 -21.8438,52.6875 -21.84375,52.6875 -9.18439,22.17311 -42.46568,8.39188 -33.28125,-13.78125 0,0 33.50894,-80.86022 35.625,-85.96875 C 104.85068,90.470403 94.40622,65.25 94.40625,65.25 88.66602,51.391833 99.46707,40.79169 110.625,40.21875 c 0.41842,-0.02149 0.83138,-0.03841 1.25,-0.03125 z m 199.3125,48.78125 25.65625,0 0,62.59375 40.03125,0 0,20.4375 -65.6875,0 0,-83.03125 z m 269.5625,0 23.25,0 0,28.78125 c 2.30335,-2.41661 4.93616,-4.22911 7.84375,-5.4375 2.94527,-1.20827 6.16923,-1.81244 9.71875,-1.8125 7.32547,6e-5 13.39187,2.61985 18.1875,7.90625 4.7955,5.24875 7.18743,12.80082 7.1875,22.65625 -7e-5,6.57034 -1.09122,12.38413 -3.28125,17.40625 -2.19017,4.98438 -5.23574,8.72657 -9.125,11.21875 -3.85162,2.45443 -8.12375,3.6875 -12.84375,3.6875 -4.04041,0 -7.73311,-0.88802 -11.09375,-2.625 -2.52998,-1.35937 -5.29821,-3.91796 -8.28125,-7.65625 l 0,8.90625 -21.5625,0 0,-83.03125 z m 117.40625,0 23.28125,0 0,83.03125 -21.59375,0 0,-8.90625 c -3.02088,3.77605 -5.75786,6.33464 -8.25,7.65625 -3.32295,1.73698 -7.04691,2.625 -11.125,2.625 -8.19403,0 -14.43882,-3.14453 -18.78125,-9.375 -4.30469,-6.23045 -6.46875,-13.77602 -6.46875,-22.6875 0,-9.96871 2.36718,-17.61974 7.125,-22.90625 4.79556,-5.2864 10.8867,-7.90619 18.25,-7.90625 3.58721,6e-5 6.84241,0.60423 9.75,1.8125 2.94527,1.20839 5.54683,3.02089 7.8125,5.4375 l 0,-28.78125 z m 38.28125,0 23.0625,0 0,15.6875 -23.0625,0 0,-15.6875 z M 417.21875,110.5 c 6.91011,6e-5 12.46479,0.39459 16.65625,1.1875 4.19135,0.75527 7.67442,2.35813 10.46875,4.8125 1.96348,1.69927 3.52337,4.11594 4.65625,7.25 1.13274,3.0964 1.68743,6.04301 1.6875,8.875 l 0,26.5625 c -7e-5,2.83204 0.16009,5.06381 0.5,6.6875 0.37753,1.58594 1.16659,3.63281 2.375,6.125 l -21.625,0 c -0.86854,-1.54818 -1.42323,-2.70703 -1.6875,-3.5 -0.26437,-0.83072 -0.54823,-2.13802 -0.8125,-3.875 -3.02088,2.90756 -6.01697,5.00391 -9,6.25 -4.07816,1.66146 -8.81904,2.5 -14.21875,2.5 -7.1745,0 -12.63673,-1.67708 -16.375,-5 -3.70053,-3.32291 -5.53125,-7.41015 -5.53125,-12.28125 0,-4.56899 1.319,-8.33591 4,-11.28125 2.68098,-2.94528 7.63149,-5.12757 14.84375,-6.5625 8.6471,-1.73694 14.276,-2.94528 16.84375,-3.625 2.56767,-0.71741 5.28641,-1.6484 8.15625,-2.78125 -5e-5,-2.83199 -0.61072,-4.80464 -1.78125,-5.9375 -1.17062,-1.13277 -3.21098,-1.7187 -6.15625,-1.71875 -3.77608,5e-5 -6.61201,0.60421 -8.5,1.8125 -1.47269,0.94406 -2.65628,2.73832 -3.5625,5.34375 L 386.125,129 c 0.83072,-3.85152 2.01431,-6.87235 3.5625,-9.0625 1.58593,-2.22781 3.86717,-4.1575 6.8125,-5.78125 2.11456,-1.17051 5.01821,-2.07676 8.71875,-2.71875 3.70049,-0.64187 7.69528,-0.93744 12,-0.9375 z m 89.875,0 c 4.79552,6e-5 8.61192,0.83209 11.40625,2.53125 2.79421,1.69928 5.06894,4.23313 6.84375,7.59375 3.62493,-3.92703 6.9231,-6.60281 9.90625,-8 2.98299,-1.43484 6.68221,-2.12494 11.0625,-2.125 6.45694,6e-5 11.4999,1.8985 15.125,5.75 3.62489,3.81385 5.43739,9.81255 5.4375,17.96875 l 0,37.78125 -23.125,0 0,-34.28125 c -9e-5,-2.71871 -0.53654,-4.7096 -1.59375,-6.03125 -1.54826,-2.07678 -3.47795,-3.12496 -5.78125,-3.125 -2.71883,4e-5 -4.90112,0.974 -6.5625,2.9375 -1.66153,1.96358 -2.50007,5.12634 -2.5,9.46875 l 0,31.03125 -23.09375,0 0,-33.125 c -5e-5,-2.64319 -0.16671,-4.43095 -0.46875,-5.375 -0.49093,-1.51038 -1.32296,-2.71871 -2.53125,-3.625 -1.20838,-0.94397 -2.62634,-1.43746 -4.25,-1.4375 -2.64327,4e-5 -4.83207,0.99874 -6.53125,3 -1.69925,2.00134 -2.53128,5.30602 -2.53125,9.875 l 0,30.6875 -23.125,0 0,-60.15625 21.53125,0 0,8.78125 c 3.09632,-3.66271 6.2096,-6.26427 9.34375,-7.8125 3.17183,-1.54812 6.98173,-2.31244 11.4375,-2.3125 z m 387.21875,0 c 4.79552,6e-5 8.58067,0.83209 11.375,2.53125 2.79421,1.69928 5.06894,4.23313 6.84375,7.59375 3.62493,-3.92703 6.9231,-6.60281 9.90625,-8 2.98299,-1.43484 6.68221,-2.12494 11.0625,-2.125 6.45694,6e-5 11.4999,1.8985 15.125,5.75 3.62489,3.81385 5.43739,9.81255 5.4375,17.96875 l 0,37.78125 -23.125,0 0,-34.28125 c -9e-5,-2.71871 -0.50529,-4.7096 -1.5625,-6.03125 -1.54826,-2.07678 -3.47795,-3.12496 -5.78125,-3.125 -2.71883,4e-5 -4.93237,0.974 -6.59375,2.9375 -1.66153,1.96358 -2.46882,5.12634 -2.46875,9.46875 l 0,31.03125 -23.125,0 0,-33.125 c -5e-5,-2.64319 -0.13546,-4.43095 -0.4375,-5.375 -0.49093,-1.51038 -1.35421,-2.71871 -2.5625,-3.625 -1.20838,-0.94397 -2.62634,-1.43746 -4.25,-1.4375 -2.64327,4e-5 -4.80082,0.99874 -6.5,3 -1.69925,2.00134 -2.56253,5.30602 -2.5625,9.875 l 0,30.6875 -23.09375,0 0,-60.15625 21.5,0 0,8.78125 c 3.09632,-3.66271 6.2096,-6.26427 9.34375,-7.8125 3.17183,-1.54812 7.01298,-2.31244 11.46875,-2.3125 z m -157.875,1.34375 23.0625,0 0,60.15625 -23.0625,0 0,-60.15625 z m 37.65625,0 23.1875,0 0,33.09375 c -3e-5,3.77606 0.69658,6.44533 2.09375,8.03125 1.3971,1.58595 3.34502,2.37502 5.875,2.375 2.75647,2e-5 5.01298,-1.04165 6.75,-3.15625 1.77469,-2.11456 2.6562,-5.93096 2.65625,-11.40625 l 0,-28.9375 23.0625,0 0,60.15625 -21.53125,0 0,-9.75 c -3.20968,4.00261 -6.46489,6.86328 -9.75,8.5625 -3.24743,1.69922 -7.24222,2.5625 -12,2.5625 -6.34377,0 -11.31252,-1.91146 -14.9375,-5.6875 -3.58725,-3.81379 -5.40626,-9.67056 -5.40625,-17.5625 l 0,-38.28125 z M 614.5,127.71875 c -3.13415,4e-5 -5.71748,1.1589 -7.71875,3.5 -1.96357,2.30342 -2.93753,5.81123 -2.9375,10.53125 -3e-5,5.1732 0.98044,8.94013 2.90625,11.28125 1.96351,2.3034 4.42314,3.43752 7.40625,3.4375 2.75647,2e-5 5.05594,-1.10936 6.90625,-3.375 1.88797,-2.30336 2.8437,-6.16274 2.84375,-11.5625 -5e-5,-4.75778 -0.93104,-8.24085 -2.78125,-10.46875 -1.81255,-2.22782 -4.01957,-3.34371 -6.625,-3.34375 z m 73.21875,0 c -2.68102,4e-5 -4.90628,1.11593 -6.71875,3.34375 -1.81253,2.2279 -2.71878,5.93884 -2.71875,11.1875 -3e-5,4.90888 0.93096,8.54039 2.78125,10.84375 1.88799,2.26564 4.18096,3.37502 6.9375,3.375 2.94527,2e-5 5.41142,-1.1341 7.375,-3.4375 1.9635,-2.30336 2.93745,-6.07029 2.9375,-11.28125 -5e-5,-4.72002 -0.99874,-8.22783 -3,-10.53125 -2.00134,-2.3411 -4.5352,-3.49996 -7.59375,-3.5 z m -259.5625,15.71875 c -3.17192,1.13284 -6.47009,2.16279 -9.90625,3.03125 -4.68233,1.24612 -7.66019,2.44794 -8.90625,3.65625 -1.28388,1.24611 -1.93753,2.66408 -1.9375,4.25 -3e-5,1.81252 0.62888,3.32944 1.875,4.5 1.28382,1.13282 3.17054,1.68751 5.625,1.6875 2.56767,1e-5 4.93486,-0.62889 7.125,-1.875 2.22782,-1.24608 3.7812,-2.75649 4.6875,-4.53125 0.94396,-1.81248 1.43745,-4.16144 1.4375,-7.03125 l 0,-3.6875 z"
       id="path2176-4" />
  </g>
  <g
     inkscape:groupmode="layer"
     id="layer4"
     inkscape:label="lambda"
     style="display:inline"
     transform="translate(0,16)">
    <path
       style="fill:url(#radialGradient3653);fill-opacity:1;fill-rule:evenodd;stroke:#000000;stroke-opacity:1;display:inline"
       d="m 8.0000135,111.99997 c 0,72.00001 48.0000005,120.00001 119.9999965,120.00001 72,0 120,-48 120,-120.00001 0,-71.999995 -48,-119.999987 -120,-119.999987 -71.999996,0 -119.9999965,47.999992 -119.9999965,119.999987 z M 106.62501,20.218733 c 6.69477,-0.34377 13.5246,2.93508 16.96876,11.249996 0,0 59.71874,144.093751 59.71874,144.093751 5.74024,13.85818 -5.1334,24.45968 -16.3125,25.03124 -6.70747,0.3429 -13.5246,-2.93506 -16.96876,-11.25 0,0 -11.72973,-28.47364 -22.03124,-53.34375 -10.52663,25.41351 -21.84379,52.68751 -21.84374,52.68751 -9.184387,22.17311 -42.465675,8.39187 -33.281245,-13.78126 0,0 33.508925,-80.860217 35.624985,-85.968744 -7.64932,-18.4671 -18.093777,-43.6875 -18.093747,-43.6875 -5.74023,-13.858167 5.06082,-24.458303 16.218747,-25.031243 z"
       id="path2176"
       sodipodi:nodetypes="cccccccssccsccsc" />
    <path
       style="fill:url(#linearGradient5100);fill-opacity:1;fill-rule:evenodd;stroke:#000000;stroke-linecap:round;stroke-linejoin:bevel;stroke-opacity:1;display:inline"
       d="m 235.375,16 c 22.80889,23.872758 36.0625,57.09378 36.0625,96 0,38.90622 -13.25361,72.12724 -36.0625,96 l 700.0625,0 c 48,0 72,-56 72,-96 0,-40 -24,-96 -72,-96 L 235.375,16 z m 71.8125,52.96875 25.65625,0 0,62.59375 40.03125,0 0,20.4375 -65.6875,0 0,-83.03125 z m 269.5625,0 23.25,0 0,28.78125 c 2.30335,-2.41661 4.93616,-4.22911 7.84375,-5.4375 2.94527,-1.20827 6.16923,-1.81244 9.71875,-1.8125 7.32547,6e-5 13.39187,2.61985 18.1875,7.90625 4.7955,5.24875 7.18743,12.80082 7.1875,22.65625 -7e-5,6.57034 -1.09122,12.38413 -3.28125,17.40625 -2.19017,4.98438 -5.23574,8.72657 -9.125,11.21875 -3.85162,2.45443 -8.12375,3.6875 -12.84375,3.6875 -4.04041,0 -7.73311,-0.88802 -11.09375,-2.625 -2.52998,-1.35937 -5.29821,-3.91796 -8.28125,-7.65625 l 0,8.90625 -21.5625,0 0,-83.03125 z m 117.40625,0 23.28125,0 0,83.03125 -21.59375,0 0,-8.90625 c -3.02088,3.77605 -5.75786,6.33464 -8.25,7.65625 -3.32295,1.73698 -7.04691,2.625 -11.125,2.625 -8.19403,0 -14.43882,-3.14453 -18.78125,-9.375 -4.30469,-6.23045 -6.46875,-13.77602 -6.46875,-22.6875 0,-9.96871 2.36718,-17.61974 7.125,-22.90625 4.79556,-5.2864 10.8867,-7.90619 18.25,-7.90625 3.58721,6e-5 6.84241,0.60423 9.75,1.8125 2.94527,1.20839 5.54683,3.02089 7.8125,5.4375 l 0,-28.78125 z m 38.28125,0 23.0625,0 0,15.6875 -23.0625,0 0,-15.6875 z M 413.21875,90.5 c 6.91011,6e-5 12.46479,0.39459 16.65625,1.1875 4.19135,0.75527 7.67442,2.35813 10.46875,4.8125 1.96348,1.69927 3.52337,4.11594 4.65625,7.25 1.13274,3.0964 1.68743,6.04301 1.6875,8.875 l 0,26.5625 c -7e-5,2.83204 0.16009,5.06381 0.5,6.6875 0.37753,1.58594 1.16659,3.63281 2.375,6.125 l -21.625,0 c -0.86854,-1.54818 -1.42323,-2.70703 -1.6875,-3.5 -0.26437,-0.83072 -0.54823,-2.13802 -0.8125,-3.875 -3.02088,2.90756 -6.01697,5.00391 -9,6.25 -4.07816,1.66146 -8.81904,2.5 -14.21875,2.5 -7.1745,0 -12.63673,-1.67708 -16.375,-5 -3.70053,-3.32291 -5.53125,-7.41015 -5.53125,-12.28125 0,-4.56899 1.319,-8.33591 4,-11.28125 2.68098,-2.94528 7.63149,-5.12757 14.84375,-6.5625 8.6471,-1.73694 14.276,-2.94528 16.84375,-3.625 2.56767,-0.71741 5.28641,-1.6484 8.15625,-2.78125 -5e-5,-2.83199 -0.61072,-4.80464 -1.78125,-5.9375 -1.17062,-1.13277 -3.21098,-1.7187 -6.15625,-1.71875 -3.77608,5e-5 -6.61201,0.60421 -8.5,1.8125 -1.47269,0.94406 -2.65628,2.73832 -3.5625,5.34375 L 382.125,109 c 0.83072,-3.85152 2.01431,-6.87235 3.5625,-9.0625 1.58593,-2.22781 3.86717,-4.1575 6.8125,-5.78125 2.11456,-1.17051 5.01821,-2.07676 8.71875,-2.71875 3.70049,-0.64187 7.69528,-0.93744 12,-0.9375 z m 89.875,0 c 4.79552,6e-5 8.61192,0.83209 11.40625,2.53125 2.79421,1.69928 5.06894,4.23313 6.84375,7.59375 3.62493,-3.92703 6.9231,-6.60281 9.90625,-8 2.98299,-1.43484 6.68221,-2.12494 11.0625,-2.125 6.45694,6e-5 11.4999,1.8985 15.125,5.75 3.62489,3.81385 5.43739,9.81255 5.4375,17.96875 l 0,37.78125 -23.125,0 0,-34.28125 c -9e-5,-2.71871 -0.53654,-4.7096 -1.59375,-6.03125 -1.54826,-2.07678 -3.47795,-3.12496 -5.78125,-3.125 -2.71883,4e-5 -4.90112,0.974 -6.5625,2.9375 -1.66153,1.96358 -2.50007,5.12634 -2.5,9.46875 l 0,31.03125 -23.09375,0 0,-33.125 c -5e-5,-2.64319 -0.16671,-4.43095 -0.46875,-5.375 -0.49093,-1.51038 -1.32296,-2.71871 -2.53125,-3.625 -1.20838,-0.94397 -2.62634,-1.43746 -4.25,-1.4375 -2.64327,4e-5 -4.83207,0.99874 -6.53125,3 -1.69925,2.00134 -2.53128,5.30602 -2.53125,9.875 l 0,30.6875 -23.125,0 0,-60.15625 21.53125,0 0,8.78125 c 3.09632,-3.66271 6.2096,-6.26427 9.34375,-7.8125 3.17183,-1.54812 6.98173,-2.31244 11.4375,-2.3125 z m 387.21875,0 c 4.79552,6e-5 8.58067,0.83209 11.375,2.53125 2.79421,1.69928 5.06894,4.23313 6.84375,7.59375 3.62493,-3.92703 6.9231,-6.60281 9.90625,-8 2.98299,-1.43484 6.68221,-2.12494 11.0625,-2.125 6.45694,6e-5 11.4999,1.8985 15.125,5.75 3.62489,3.81385 5.43739,9.81255 5.4375,17.96875 l 0,37.78125 -23.125,0 0,-34.28125 c -9e-5,-2.71871 -0.50529,-4.7096 -1.5625,-6.03125 -1.54826,-2.07678 -3.47795,-3.12496 -5.78125,-3.125 -2.71883,4e-5 -4.93237,0.974 -6.59375,2.9375 -1.66153,1.96358 -2.46882,5.12634 -2.46875,9.46875 l 0,31.03125 -23.125,0 0,-33.125 c -5e-5,-2.64319 -0.13546,-4.43095 -0.4375,-5.375 -0.49093,-1.51038 -1.35421,-2.71871 -2.5625,-3.625 -1.20838,-0.94397 -2.62634,-1.43746 -4.25,-1.4375 -2.64327,4e-5 -4.80082,0.99874 -6.5,3 -1.69925,2.00134 -2.56253,5.30602 -2.5625,9.875 l 0,30.6875 -23.09375,0 0,-60.15625 21.5,0 0,8.78125 c 3.09632,-3.66271 6.2096,-6.26427 9.34375,-7.8125 3.17183,-1.54812 7.01298,-2.31244 11.46875,-2.3125 z m -157.875,1.34375 23.0625,0 0,60.15625 -23.0625,0 0,-60.15625 z m 37.65625,0 23.1875,0 0,33.09375 c -3e-5,3.77606 0.69658,6.44533 2.09375,8.03125 1.3971,1.58595 3.34502,2.37502 5.875,2.375 2.75647,2e-5 5.01298,-1.04165 6.75,-3.15625 1.77469,-2.11456 2.6562,-5.93096 2.65625,-11.40625 l 0,-28.9375 23.0625,0 0,60.15625 -21.53125,0 0,-9.75 c -3.20968,4.00261 -6.46489,6.86328 -9.75,8.5625 -3.24743,1.69922 -7.24222,2.5625 -12,2.5625 -6.34377,0 -11.31252,-1.91146 -14.9375,-5.6875 -3.58725,-3.81379 -5.40626,-9.67056 -5.40625,-17.5625 l 0,-38.28125 z M 610.5,107.71875 c -3.13415,4e-5 -5.71748,1.1589 -7.71875,3.5 -1.96357,2.30342 -2.93753,5.81123 -2.9375,10.53125 -3e-5,5.1732 0.98044,8.94013 2.90625,11.28125 1.96351,2.3034 4.42314,3.43752 7.40625,3.4375 2.75647,2e-5 5.05594,-1.10936 6.90625,-3.375 1.88797,-2.30336 2.8437,-6.16274 2.84375,-11.5625 -5e-5,-4.75778 -0.93104,-8.24085 -2.78125,-10.46875 -1.81255,-2.22782 -4.01957,-3.34371 -6.625,-3.34375 z m 73.21875,0 c -2.68102,4e-5 -4.90628,1.11593 -6.71875,3.34375 -1.81253,2.2279 -2.71878,5.93884 -2.71875,11.1875 -3e-5,4.90888 0.93096,8.54039 2.78125,10.84375 1.88799,2.26564 4.18096,3.37502 6.9375,3.375 2.94527,2e-5 5.41142,-1.1341 7.375,-3.4375 1.9635,-2.30336 2.93745,-6.07029 2.9375,-11.28125 -5e-5,-4.72002 -0.99874,-8.22783 -3,-10.53125 -2.00134,-2.3411 -4.5352,-3.49996 -7.59375,-3.5 z m -259.5625,15.71875 c -3.17192,1.13284 -6.47009,2.16279 -9.90625,3.03125 -4.68233,1.24612 -7.66019,2.44794 -8.90625,3.65625 -1.28388,1.24611 -1.93753,2.66408 -1.9375,4.25 -3e-5,1.81252 0.62888,3.32944 1.875,4.5 1.28382,1.13282 3.17054,1.68751 5.625,1.6875 2.56767,1e-5 4.93486,-0.62889 7.125,-1.875 2.22782,-1.24608 3.7812,-2.75649 4.6875,-4.53125 0.94396,-1.81248 1.43745,-4.16144 1.4375,-7.03125 l 0,-3.6875 z"
       id="path2172" />
  </g>
</svg>
