<?xml version="1.0" encoding="UTF-8" standalone="no"?>
<!-- Created with Inkscape (http://www.inkscape.org/) -->

<svg
   xmlns:dc="http://purl.org/dc/elements/1.1/"
   xmlns:cc="http://creativecommons.org/ns#"
   xmlns:rdf="http://www.w3.org/1999/02/22-rdf-syntax-ns#"
   xmlns:svg="http://www.w3.org/2000/svg"
   xmlns="http://www.w3.org/2000/svg"
   xmlns:xlink="http://www.w3.org/1999/xlink"
   xmlns:sodipodi="http://sodipodi.sourceforge.net/DTD/sodipodi-0.dtd"
   xmlns:inkscape="http://www.inkscape.org/namespaces/inkscape"
   width="240"
   height="240"
   id="svg2"
   sodipodi:version="0.32"
   inkscape:version="0.47pre4 r22446"
   version="1.0"
   sodipodi:docname="lambdium-logo.svg"
   inkscape:output_extension="org.inkscape.output.svg.inkscape"
   sodipodi:modified="true">
  <defs
     id="defs4">
    <inkscape:perspective
       sodipodi:type="inkscape:persp3d"
       inkscape:vp_x="0 : 120 : 1"
       inkscape:vp_y="0 : 1000 : 0"
       inkscape:vp_z="240 : 120 : 1"
       inkscape:persp3d-origin="120 : 80 : 1"
       id="perspective25" />
    <linearGradient
       id="linearGradient7029">
      <stop
         id="stop7037"
         offset="0"
         style="stop-color:#fce3e3;stop-opacity:1;" />
      <stop
         style="stop-color:#d61919;stop-opacity:1;"
         offset="1"
         id="stop7033" />
    </linearGradient>
    <linearGradient
       id="linearGradient3139">
      <stop
         id="stop5085"
         offset="0"
         style="stop-color:#d2dfe7;stop-opacity:1;" />
      <stop
         style="stop-color:#5b8ba6;stop-opacity:1;"
         offset="1"
         id="stop3143" />
    </linearGradient>
    <radialGradient
       inkscape:collect="always"
       xlink:href="#linearGradient3139"
       id="radialGradient3145"
       cx="150.35114"
       cy="78.555992"
       fx="150.35114"
       fy="78.555992"
       r="40.000005"
       gradientTransform="matrix(0.6449181,-4.0463259e-3,4.0049426e-3,0.6383224,51.680644,30.489532)"
       gradientUnits="userSpaceOnUse" />
    <radialGradient
       inkscape:collect="always"
       xlink:href="#linearGradient7029"
       id="radialGradient7035"
       cx="161.03111"
       cy="31.010136"
       fx="161.03111"
       fy="31.010136"
       r="4"
       gradientUnits="userSpaceOnUse"
       gradientTransform="matrix(1.2371551,0,0,1.2371551,-38.189353,-7.3542124)" />
    <radialGradient
       inkscape:collect="always"
       xlink:href="#linearGradient7029"
       id="radialGradient8014"
       gradientUnits="userSpaceOnUse"
       gradientTransform="matrix(1.2371551,0,0,1.2371551,-38.189353,-7.3542124)"
       cx="161.03111"
       cy="31.010136"
       fx="161.03111"
       fy="31.010136"
       r="4" />
    <radialGradient
       inkscape:collect="always"
       xlink:href="#linearGradient7029"
       id="radialGradient8018"
       gradientUnits="userSpaceOnUse"
       gradientTransform="matrix(1.2371551,0,0,1.2371551,-38.189353,-7.3542124)"
       cx="161.03111"
       cy="31.010136"
       fx="161.03111"
       fy="31.010136"
       r="4" />
    <inkscape:perspective
       id="perspective2839"
       inkscape:persp3d-origin="0.5 : 0.33333333 : 1"
       inkscape:vp_z="1 : 0.5 : 1"
       inkscape:vp_y="0 : 1000 : 0"
       inkscape:vp_x="0 : 0.5 : 1"
       sodipodi:type="inkscape:persp3d" />
    <radialGradient
       inkscape:collect="always"
       xlink:href="#linearGradient3139-3"
       id="radialGradient3145-9"
       cx="150.35114"
       cy="78.555992"
       fx="150.35114"
       fy="78.555992"
       r="40.000004"
       gradientTransform="matrix(0.6449181,-0.00404633,0.00400494,0.6383224,51.680644,30.489532)"
       gradientUnits="userSpaceOnUse" />
    <linearGradient
       id="linearGradient3139-3">
      <stop
         id="stop5085-7"
         offset="0"
         style="stop-color:#d2dfe7;stop-opacity:1;" />
      <stop
         style="stop-color:#5b8ba6;stop-opacity:1;"
         offset="1"
         id="stop3143-4" />
    </linearGradient>
    <filter
       inkscape:collect="always"
       id="filter3661">
      <feGaussianBlur
         inkscape:collect="always"
         stdDeviation="0.64000001"
         id="feGaussianBlur3663" />
    </filter>
  </defs>
  <sodipodi:namedview
     id="base"
     pagecolor="#ffffff"
     bordercolor="#666666"
     borderopacity="1.0"
     gridtolerance="20"
     guidetolerance="20"
     objecttolerance="20"
     inkscape:pageopacity="0.0"
     inkscape:pageshadow="2"
     inkscape:zoom="12.122867"
     inkscape:cx="107.29204"
     inkscape:cy="117.83022"
     inkscape:document-units="px"
     inkscape:current-layer="layer1"
     width="240px"
     height="240px"
     inkscape:window-width="1440"
     inkscape:window-height="878"
     inkscape:window-x="-4"
     inkscape:window-y="-3"
     showgrid="true"
     inkscape:object-paths="false"
     inkscape:grid-points="true"
     inkscape:grid-bbox="true"
     showguides="true"
     inkscape:guide-bbox="true"
     inkscape:window-maximized="1">
    <inkscape:grid
       id="GridFromPre046Settings"
       type="xygrid"
       originx="0px"
       originy="0px"
       spacingx="2px"
       spacingy="2px"
       color="#0000ff"
       empcolor="#0000ff"
       opacity="0.2"
       empopacity="0.4"
       empspacing="8"
       visible="true"
       enabled="true"
       snapvisiblegridlinesonly="true" />
  </sodipodi:namedview>
  <metadata
     id="metadata7">
    <rdf:RDF>
      <cc:Work
         rdf:about="">
        <dc:format>image/svg+xml</dc:format>
        <dc:type
           rdf:resource="http://purl.org/dc/dcmitype/StillImage" />
      </cc:Work>
    </rdf:RDF>
  </metadata>
  <g
     inkscape:groupmode="layer"
     id="layer2"
     inkscape:label="background"
     style="display:inline"
     transform="translate(-22.228346,33.771654)" />
  <g
     inkscape:label="letters"
     inkscape:groupmode="layer"
     id="layer1"
     style="display:inline"
     transform="translate(-22.228346,33.771654)">
    <path
       style="opacity:0.9;fill:#000000;fill-opacity:1;fill-rule:evenodd;stroke:none;display:inline;filter:url(#filter3661)"
       d="m 112.25335,88.028344 c 0,19.200006 12.8,32.000006 32,32.000006 19.2,0 32,-12.8 32,-32.000006 0,-19.199998 -12.8,-31.999996 -32,-31.999996 -19.2,0 -32,12.799998 -32,31.999996 z m 26.3,-24.474996 c 1.78527,-0.09167 3.60656,0.782688 4.525,2.999999 0,0 15.925,38.425003 15.925,38.425003 1.53073,3.69551 -1.36891,6.52258 -4.35,6.675 -1.78866,0.0914 -3.60656,-0.78269 -4.525,-3 0,0 -3.12793,-7.59297 -5.875,-14.225006 -2.8071,6.776936 -5.82501,14.050006 -5.825,14.050006 -2.44917,5.91283 -11.32418,2.23783 -8.875,-3.675 0,0 8.93572,-21.562732 9.5,-22.925004 -2.03982,-4.92456 -4.82501,-11.65 -4.825,-11.65 -1.53073,-3.695511 1.34955,-6.522214 4.325,-6.674998 z"
       id="path2176-5"
       sodipodi:nodetypes="cccccccssccsccsc" />
    <path
       style="fill:url(#radialGradient3145);fill-opacity:1;fill-rule:evenodd;stroke:none;stroke-width:1px;stroke-linecap:butt;stroke-linejoin:miter;stroke-opacity:1;display:inline"
       d="M 110.22835,86.228342 C 110.22835,105.42835 123.02835,118.22835 142.22835,118.22835 C 161.42835,118.22835 174.22835,105.42835 174.22835,86.228342 C 174.22835,67.028344 161.42835,54.228346 142.22835,54.228346 C 123.02835,54.228346 110.22835,67.028344 110.22835,86.228342 z M 136.52835,61.753346 C 138.31362,61.661674 140.13491,62.536034 141.05335,64.753345 C 141.05335,64.753345 156.97835,103.17835 156.97835,103.17835 C 158.50908,106.87386 155.60944,109.70093 152.62835,109.85335 C 150.83969,109.94479 149.02179,109.07066 148.10335,106.85335 C 148.10335,106.85335 144.97542,99.260374 142.22835,92.628342 C 139.42125,99.40528 136.40334,106.67835 136.40335,106.67835 C 133.95418,112.59118 125.07917,108.91618 127.52835,103.00335 C 127.52835,103.00335 136.46407,81.440616 137.02835,80.078344 C 134.98853,75.153784 132.20334,68.428344 132.20335,68.428344 C 130.67262,64.732833 133.5529,61.90613 136.52835,61.753346 z "
       id="path2176"
       sodipodi:nodetypes="cccccccssccsccsc" />
    <path
       style="fill:none;fill-opacity:1;fill-rule:evenodd;stroke:#38647c;stroke-width:5;stroke-linecap:round;stroke-linejoin:round;stroke-miterlimit:4;stroke-dasharray:none;stroke-dashoffset:0;stroke-opacity:1"
       d="M 94.293938,86.265872 C 94.228346,24.228346 116.22835,-25.771654 142.22835,-25.730526 C 168.22835,-25.771654 190.22835,24.228346 190.16276,86.265872 C 190.22835,148.22835 168.19282,198.22835 142.22835,198.22835 C 116.26388,198.22835 94.228346,148.22835 94.293938,86.265872 z "
       id="path2170"
       sodipodi:nodetypes="ccccc" />
    <path
       sodipodi:type="arc"
       style="opacity:1;fill:url(#radialGradient7035);fill-opacity:1;fill-rule:evenodd;stroke:none;stroke-width:7.08661413;stroke-linecap:round;stroke-linejoin:round;stroke-miterlimit:4;stroke-dasharray:none;stroke-dashoffset:0;stroke-opacity:1"
       id="path5089"
       sodipodi:cx="160"
       sodipodi:cy="32"
       sodipodi:rx="4"
       sodipodi:ry="4"
       d="m 156,32 c 0,-2.209139 1.79086,-4 4,-4 2.20914,0 4,1.790861 4,4 0,2.209139 -1.79086,4 -4,4 -2.18473,0 -3.96532,-1.752936 -3.99951,-3.937399"
       transform="matrix(2,0,0,2,-153.77165,-75.771654)"
       sodipodi:start="3.1415926"
       sodipodi:end="9.4091271"
       sodipodi:open="true" />
    <path
       style="fill:none;fill-opacity:1;fill-rule:evenodd;stroke:#38647c;stroke-width:5;stroke-linecap:round;stroke-linejoin:round;stroke-miterlimit:4;stroke-dasharray:none;stroke-dashoffset:0;stroke-opacity:1;display:inline"
       d="M 118.27584,127.7698 C 64.516973,96.807845 32.215705,52.755282 45.251322,30.259186 C 58.215705,7.7219613 112.51697,13.669402 166.21025,44.744968 C 219.90413,75.669404 252.18763,119.75273 239.2054,142.23862 C 226.22316,164.72451 171.90413,158.80785 118.27584,127.7698 z "
       id="path8008"
       sodipodi:nodetypes="ccccc" />
    <path
       style="fill:none;fill-opacity:1;fill-rule:evenodd;stroke:#38647c;stroke-width:5;stroke-linecap:round;stroke-linejoin:round;stroke-miterlimit:4;stroke-dasharray:none;stroke-dashoffset:0;stroke-opacity:1;display:inline"
       d="M 118.24644,44.744968 C 171.93972,13.669401 226.24099,7.721963 239.20538,30.259188 C 252.24099,52.755284 219.93972,96.807843 166.18086,127.7698 C 112.55257,158.80784 58.233536,164.72452 45.251301,142.23863 C 32.269066,119.75273 64.552569,75.669403 118.24644,44.744968 z "
       id="path8010"
       sodipodi:nodetypes="ccccc" />
    <path
       sodipodi:type="arc"
       style="opacity:1;fill:url(#radialGradient8014);fill-opacity:1;fill-rule:evenodd;stroke:none;stroke-width:7.08661413;stroke-linecap:round;stroke-linejoin:round;stroke-miterlimit:4;stroke-dasharray:none;stroke-dashoffset:0;stroke-opacity:1;display:inline"
       id="path8012"
       sodipodi:cx="160"
       sodipodi:cy="32"
       sodipodi:rx="4"
       sodipodi:ry="4"
       d="m 156,32 c 0,-2.209139 1.79086,-4 4,-4 2.20914,0 4,1.790861 4,4 0,2.209139 -1.79086,4 -4,4 -2.18473,0 -3.96532,-1.752936 -3.99951,-3.937399"
       transform="matrix(2,0,0,2,-269.77165,44.228346)"
       sodipodi:start="3.1415926"
       sodipodi:end="9.4091271"
       sodipodi:open="true" />
    <path
       sodipodi:type="arc"
       style="opacity:1;fill:url(#radialGradient8018);fill-opacity:1;fill-rule:evenodd;stroke:none;stroke-width:7.08661413;stroke-linecap:round;stroke-linejoin:round;stroke-miterlimit:4;stroke-dasharray:none;stroke-dashoffset:0;stroke-opacity:1;display:inline"
       id="path8016"
       sodipodi:cx="160"
       sodipodi:cy="32"
       sodipodi:rx="4"
       sodipodi:ry="4"
       d="m 156,32 c 0,-2.209139 1.79086,-4 4,-4 2.20914,0 4,1.790861 4,4 0,2.209139 -1.79086,4 -4,4 -2.18473,0 -3.96532,-1.752936 -3.99951,-3.937399"
       transform="matrix(2,0,0,2,-101.77165,90.228346)"
       sodipodi:start="3.1415926"
       sodipodi:end="9.4091271"
       sodipodi:open="true" />
  </g>
</svg>
