<?xml version="1.0" encoding="UTF-8" standalone="no"?>
<!-- Created with Inkscape (http://www.inkscape.org/) -->
<svg
   xmlns:dc="http://purl.org/dc/elements/1.1/"
   xmlns:cc="http://web.resource.org/cc/"
   xmlns:rdf="http://www.w3.org/1999/02/22-rdf-syntax-ns#"
   xmlns:svg="http://www.w3.org/2000/svg"
   xmlns="http://www.w3.org/2000/svg"
   xmlns:xlink="http://www.w3.org/1999/xlink"
   xmlns:sodipodi="http://sodipodi.sourceforge.net/DTD/sodipodi-0.dtd"
   xmlns:inkscape="http://www.inkscape.org/namespaces/inkscape"
   width="240"
   height="240"
   id="svg2"
   sodipodi:version="0.32"
   inkscape:version="0.45"
   version="1.0"
   sodipodi:docname="lambdium-logo.svg"
   sodipodi:docbase="/home/dario/nleyten/wcopy/branches/lambdium-light/server/css/default/header/src"
   inkscape:output_extension="org.inkscape.output.svg.inkscape"
   sodipodi:modified="true">
  <defs
     id="defs4">
    <linearGradient
       id="linearGradient7029">
      <stop
         id="stop7037"
         offset="0"
         style="stop-color:#fce3e3;stop-opacity:1;" />
      <stop
         style="stop-color:#d61919;stop-opacity:1;"
         offset="1"
         id="stop7033" />
    </linearGradient>
    <linearGradient
       id="linearGradient3139">
      <stop
         id="stop5085"
         offset="0"
         style="stop-color:#d2dfe7;stop-opacity:1;" />
      <stop
         style="stop-color:#5b8ba6;stop-opacity:1;"
         offset="1"
         id="stop3143" />
    </linearGradient>
    <radialGradient
       inkscape:collect="always"
       xlink:href="#linearGradient3139"
       id="radialGradient3145"
       cx="150.35114"
       cy="78.555992"
       fx="150.35114"
       fy="78.555992"
       r="40.000005"
       gradientTransform="matrix(0.6449181,-4.0463259e-3,4.0049426e-3,0.6383224,51.680644,30.489532)"
       gradientUnits="userSpaceOnUse" />
    <radialGradient
       inkscape:collect="always"
       xlink:href="#linearGradient7029"
       id="radialGradient7035"
       cx="161.03111"
       cy="31.010136"
       fx="161.03111"
       fy="31.010136"
       r="4"
       gradientUnits="userSpaceOnUse"
       gradientTransform="matrix(1.2371551,0,0,1.2371551,-38.189353,-7.3542124)" />
    <radialGradient
       inkscape:collect="always"
       xlink:href="#linearGradient7029"
       id="radialGradient8014"
       gradientUnits="userSpaceOnUse"
       gradientTransform="matrix(1.2371551,0,0,1.2371551,-38.189353,-7.3542124)"
       cx="161.03111"
       cy="31.010136"
       fx="161.03111"
       fy="31.010136"
       r="4" />
    <radialGradient
       inkscape:collect="always"
       xlink:href="#linearGradient7029"
       id="radialGradient8018"
       gradientUnits="userSpaceOnUse"
       gradientTransform="matrix(1.2371551,0,0,1.2371551,-38.189353,-7.3542124)"
       cx="161.03111"
       cy="31.010136"
       fx="161.03111"
       fy="31.010136"
       r="4" />
  </defs>
  <sodipodi:namedview
     id="base"
     pagecolor="#ffffff"
     bordercolor="#666666"
     borderopacity="1.0"
     gridtolerance="10000"
     guidetolerance="10"
     objecttolerance="10"
     inkscape:pageopacity="0.0"
     inkscape:pageshadow="2"
     inkscape:zoom="1.5153584"
     inkscape:cx="149.81253"
     inkscape:cy="130.26666"
     inkscape:document-units="px"
     inkscape:current-layer="layer1"
     width="240px"
     height="240px"
     inkscape:window-width="1152"
     inkscape:window-height="841"
     inkscape:window-x="0"
     inkscape:window-y="0"
     showgrid="true"
     gridempspacing="8"
     inkscape:object-paths="false"
     inkscape:grid-points="true"
     gridspacingx="2px"
     gridspacingy="2px"
     inkscape:grid-bbox="true"
     showguides="true"
     inkscape:guide-bbox="true" />
  <metadata
     id="metadata7">
    <rdf:RDF>
      <cc:Work
         rdf:about="">
        <dc:format>image/svg+xml</dc:format>
        <dc:type
           rdf:resource="http://purl.org/dc/dcmitype/StillImage" />
      </cc:Work>
    </rdf:RDF>
  </metadata>
  <g
     inkscape:groupmode="layer"
     id="layer2"
     inkscape:label="background"
     style="display:inline"
     transform="translate(-22.228346,33.771654)" />
  <g
     inkscape:label="letters"
     inkscape:groupmode="layer"
     id="layer1"
     style="display:inline"
     transform="translate(-22.228346,33.771654)">
    <path
       style="fill:url(#radialGradient3145);fill-opacity:1;fill-rule:evenodd;stroke:none;stroke-width:1px;stroke-linecap:butt;stroke-linejoin:miter;stroke-opacity:1;display:inline"
       d="M 110.22835,86.228342 C 110.22835,105.42835 123.02835,118.22835 142.22835,118.22835 C 161.42835,118.22835 174.22835,105.42835 174.22835,86.228342 C 174.22835,67.028344 161.42835,54.228346 142.22835,54.228346 C 123.02835,54.228346 110.22835,67.028344 110.22835,86.228342 z M 136.52835,61.753346 C 138.31362,61.661674 140.13491,62.536034 141.05335,64.753345 C 141.05335,64.753345 156.97835,103.17835 156.97835,103.17835 C 158.50908,106.87386 155.60944,109.70093 152.62835,109.85335 C 150.83969,109.94479 149.02179,109.07066 148.10335,106.85335 C 148.10335,106.85335 144.97542,99.260374 142.22835,92.628342 C 139.42125,99.40528 136.40334,106.67835 136.40335,106.67835 C 133.95418,112.59118 125.07917,108.91618 127.52835,103.00335 C 127.52835,103.00335 136.46407,81.440616 137.02835,80.078344 C 134.98853,75.153784 132.20334,68.428344 132.20335,68.428344 C 130.67262,64.732833 133.5529,61.90613 136.52835,61.753346 z "
       id="path2176"
       sodipodi:nodetypes="cccccccssccsccsc" />
    <path
       style="fill:none;fill-opacity:1;fill-rule:evenodd;stroke:#38647c;stroke-width:5;stroke-linecap:round;stroke-linejoin:round;stroke-miterlimit:4;stroke-dasharray:none;stroke-dashoffset:0;stroke-opacity:1"
       d="M 94.293938,86.265872 C 94.228346,24.228346 116.22835,-25.771654 142.22835,-25.730526 C 168.22835,-25.771654 190.22835,24.228346 190.16276,86.265872 C 190.22835,148.22835 168.19282,198.22835 142.22835,198.22835 C 116.26388,198.22835 94.228346,148.22835 94.293938,86.265872 z "
       id="path2170"
       sodipodi:nodetypes="ccccc" />
    <path
       sodipodi:type="arc"
       style="opacity:1;fill:url(#radialGradient7035);fill-opacity:1;fill-rule:evenodd;stroke:none;stroke-width:7.08661413;stroke-linecap:round;stroke-linejoin:round;stroke-miterlimit:4;stroke-dasharray:none;stroke-dashoffset:0;stroke-opacity:1"
       id="path5089"
       sodipodi:cx="160"
       sodipodi:cy="32"
       sodipodi:rx="4"
       sodipodi:ry="4"
       d="M 156,32 A 4,4 0 1 1 156.00049,32.062601"
       transform="matrix(2,0,0,2,-153.77165,-75.771654)"
       sodipodi:start="3.1415926"
       sodipodi:end="9.4091271"
       sodipodi:open="true" />
    <path
       style="fill:none;fill-opacity:1;fill-rule:evenodd;stroke:#38647c;stroke-width:5;stroke-linecap:round;stroke-linejoin:round;stroke-miterlimit:4;stroke-dasharray:none;stroke-dashoffset:0;stroke-opacity:1;display:inline"
       d="M 118.27584,127.7698 C 64.516973,96.807845 32.215705,52.755282 45.251322,30.259186 C 58.215705,7.7219613 112.51697,13.669402 166.21025,44.744968 C 219.90413,75.669404 252.18763,119.75273 239.2054,142.23862 C 226.22316,164.72451 171.90413,158.80785 118.27584,127.7698 z "
       id="path8008"
       sodipodi:nodetypes="ccccc" />
    <path
       style="fill:none;fill-opacity:1;fill-rule:evenodd;stroke:#38647c;stroke-width:5;stroke-linecap:round;stroke-linejoin:round;stroke-miterlimit:4;stroke-dasharray:none;stroke-dashoffset:0;stroke-opacity:1;display:inline"
       d="M 118.24644,44.744968 C 171.93972,13.669401 226.24099,7.721963 239.20538,30.259188 C 252.24099,52.755284 219.93972,96.807843 166.18086,127.7698 C 112.55257,158.80784 58.233536,164.72452 45.251301,142.23863 C 32.269066,119.75273 64.552569,75.669403 118.24644,44.744968 z "
       id="path8010"
       sodipodi:nodetypes="ccccc" />
    <path
       sodipodi:type="arc"
       style="opacity:1;fill:url(#radialGradient8014);fill-opacity:1;fill-rule:evenodd;stroke:none;stroke-width:7.08661413;stroke-linecap:round;stroke-linejoin:round;stroke-miterlimit:4;stroke-dasharray:none;stroke-dashoffset:0;stroke-opacity:1;display:inline"
       id="path8012"
       sodipodi:cx="160"
       sodipodi:cy="32"
       sodipodi:rx="4"
       sodipodi:ry="4"
       d="M 156,32 A 4,4 0 1 1 156.00049,32.062601"
       transform="matrix(2,0,0,2,-269.77165,44.228346)"
       sodipodi:start="3.1415926"
       sodipodi:end="9.4091271"
       sodipodi:open="true" />
    <path
       sodipodi:type="arc"
       style="opacity:1;fill:url(#radialGradient8018);fill-opacity:1;fill-rule:evenodd;stroke:none;stroke-width:7.08661413;stroke-linecap:round;stroke-linejoin:round;stroke-miterlimit:4;stroke-dasharray:none;stroke-dashoffset:0;stroke-opacity:1;display:inline"
       id="path8016"
       sodipodi:cx="160"
       sodipodi:cy="32"
       sodipodi:rx="4"
       sodipodi:ry="4"
       d="M 156,32 A 4,4 0 1 1 156.00049,32.062601"
       transform="matrix(2,0,0,2,-101.77165,90.228346)"
       sodipodi:start="3.1415926"
       sodipodi:end="9.4091271"
       sodipodi:open="true" />
  </g>
</svg>
